[   0s] CDP targets: 1
[   0s]   page: file:///Users/runner/.comfy-test-cache/desktop/ComfyUI.app/Contents/Resources/desktop-ui/index.html#/welcome | ComfyUI
[   2s] Main page: file:///Users/runner/.comfy-test-cache/desktop/ComfyUI.app/Contents/Resources/desktop-ui/index.html#/welcome | ComfyUI
[   2s] Buttons: ['Get Started']
[   2s]   wizard: COMFY_TEST_GPU=0 platform=darwin preferred=['Apple Silicon', 'MPS', 'M4', 'M3', 'M2', 'M1']
[   3s]   clicked [BTN|Get Started]
[   4s]   url: file:///Users/runner/.comfy-test-cache/desktop/ComfyUI.app/Contents/Resources/desktop-ui/index.html#/welcome -> file:///Users/runner/.comfy-test-cache/desktop/ComfyUI.app/Contents/Resources/desktop-ui/index.html#/install
[   5s]   clicked [BTN|Next]
[  12s]   clicked [BTN|Next]
[  13s]   clicked [BTN|Install]
[  15s]   url: file:///Users/runner/.comfy-test-cache/desktop/ComfyUI.app/Contents/Resources/desktop-ui/index.html#/install -> file:///Users/runner/.comfy-test-cache/desktop/ComfyUI.app/Contents/Resources/desktop-ui/index.html#/server-start
[ 129s]   /system_stats up after 126s
[ 129s]   app: waiting for backend stability (continuous /system_stats up for 30s)
[ 129s]   app: /system_stats up; awaiting 30s of stability
[ 160s]   app: backend stable for 30s; proceeding
[ 160s]   capturing canvas load...
[ 168s]   post: waiting for Cloud upsell
[ 168s]   post: clicked Cloud upsell via [button:has-text("Continue Locally"):visible]
[ 170s]   post: waiting for Close Templates
[ 179s]   post: Close Templates not found, skipping
[ 179s]   post: pressed Escape (Close Templates fallback)
[ 181s]   post: waiting for Extensions
[ 182s]   post: clicked Extensions via [button[aria-label="Extensions"]:visible]
[ 184s]   ext: node meta = display='SAM3' publisher='pznodes' version='0.1.16'
[ 187s]   ext: searching "SAM3"
[ 190s]   ext: clicking SAM3 by pznodes tile
[ 194s]   ext: scrolling to + opening version selector
[ 198s]   ext: selected 0.1.16
[ 199s]   ext: clicking right-panel Install
[ 201s]   ext: clicked Install (last of 8 visible)
[ 210s]   ext: waiting for "Apply Changes" toast
[ 238s]   ext: clicked Apply Changes
[ 243s]   app: Apply Changes already triggered in-app restart, skipping pkill
[ 248s]   app: relaunching with CDP
[ 248s]   app: waiting for CDP
[ 248s]   app: CDP up after 1s
[ 248s]   app: reconnecting Playwright
[ 249s]   app: attached to http://127.0.0.1:8000/
[ 268s]   app: server ready after 9s
[ 268s]   app: waiting for main canvas (window.app.graph)
[ 268s]   app: canvas ready after 1s (http://127.0.0.1:8000/)
[ 274s]   app: forcing renderer reload to refresh node-pack manifest
[ 276s]   app: canvas re-ready after reload in 2s
[ 279s]   ext: closing Nodes Manager dialog
[ 279s]   ext: dismissing What's New popup
[ 279s]   ext: closed What's New popup
[ 281s]   ext: dismissing Node Pack Issues modal (if present)
[ 282s]   ext: closed Node Pack Issues modal
[ 284s]   ext: opening Templates sidebar
[ 285s]   ext: clicked Templates
[ 289s]   ext: locating "comfyui-sam3" section in Templates panel
[ 291s]   ext: clicked comfyui-sam3 section
[ 294s]   ext: fetching comfy-test.toml from https://raw.githubusercontent.com/PozzettiAndrea/ComfyUI-SAM3/main/comfy-test.toml
[ 294s]   ext: cpu spec = exclude ['video_point_prompt']
[ 294s]   ext: picking first matching comfyui-sam3 template
[ 294s]   ext: 5 visible cards
[ 294s]   ext: skipping video_point_prompt (not in CPU list)
[ 296s]   ext: clicked template scene_seg_interactive
[ 302s]   ext: installing WS execution listener
[ 302s]   ext: clicking Run
[ 302s]   ext: clicked Run
[ 302s]   ext: waiting for execution_success / execution_error
[ 470s]   ext: WS events=225 elapsed=167s
[ 470s]     ws: {'type': 'progress', 'ts': 1778451541693}
[ 470s]     ws: {'type': 'progress_state', 'ts': 1778451541729}
[ 470s]     ws: {'type': 'progress_state', 'ts': 1778451541733}
[ 470s]     ws: {'type': 'executing', 'ts': 1778451541738}
[ 470s]     ws: {'type': 'progress_state', 'ts': 1778451618667}
[ 470s]     ws: {'type': 'progress', 'ts': 1778451618872}
[ 470s]     ws: {'type': 'executed', 'ts': 1778451635332}
[ 470s]     ws: {'type': 'progress_state', 'ts': 1778451635769}
[ 470s]     ws: {'type': 'progress_state', 'ts': 1778451635775}
[ 470s]     ws: {'type': 'executing', 'ts': 1778451635776}
[ 470s]     ws: {'type': 'executed', 'ts': 1778451639453}
[ 470s]     ws: {'type': 'progress_state', 'ts': 1778451639647}
[ 470s]     ws: {'type': 'execution_success', 'ts': 1778451639683}
[ 470s]     ws: {'type': 'status', 'ts': 1778451643339}
[ 470s]     ws: {'type': 'executing', 'ts': 1778451643350}
[ 470s]   ext: execution_success after 167s
[ 475s]   ext: fetching comfy-test.toml from https://raw.githubusercontent.com/PozzettiAndrea/ComfyUI-SAM3/main/comfy-test.toml
[ 475s]   ext: cpu spec = exclude ['video_point_prompt']
[ 475s]   loop: workflows/ from $COMFY_TEST_WORKFLOWS -> ['image_seg_point', 'image_seg_text', 'scene_seg', 'scene_seg_interactive', 'video_point_prompt']
[ 475s]   loop: spec=exclude items=['video_point_prompt'] -> 4 workflow(s) ['image_seg_point', 'image_seg_text', 'scene_seg', 'scene_seg_interactive']
[ 475s]   loop: matching=4 first_ran='scene_seg_interactive' remaining=3 -> ['image_seg_point', 'image_seg_text', 'scene_seg']
[ 475s]   loop: full restart for workflow 2/4 (image_seg_point)
[ 475s]   loop: closing current browser
[ 476s]   loop: killing ComfyUI process
[ 481s]   loop: launching ComfyUI with --remote-debugging-port=0
[ 481s]   loop: waiting for DevToolsActivePort at /Users/runner/Library/Application Support/ComfyUI/DevToolsActivePort
[ 483s]   loop: DevToolsActivePort -> 49928 after 3s
[ 483s]   loop: reconnecting Playwright on port 49928
[ 484s]   loop: attached to file:///Users/runner/.comfy-test-cache/desktop/ComfyUI.app/Contents/Resources/desktop-ui/index.html#/desktop-start
[ 502s]   loop: server ready after 15s
[ 505s]   loop: canvas ready after 3s
[ 505s]   loop: forcing renderer reload
[ 508s]   loop: canvas ready after 2s
[ 511s]   ext: closing Nodes Manager dialog
[ 511s]   ext: dismissing What's New popup
[ 511s]   ext: What's New popup not present
[ 511s]   ext: dismissing Node Pack Issues modal (if present)
[ 511s]   ext: Node Pack Issues modal not present
[ 511s]   ext: opening Templates sidebar
[ 512s]   ext: clicked Templates
[ 516s]   ext: locating "comfyui-sam3" section in Templates panel
[ 518s]   ext: clicked comfyui-sam3 section
[ 520s]   ext: clicking template image_seg_point
[ 523s]   ext: clicked template image_seg_point
[ 528s]   ext: installing WS execution listener
[ 528s]   ext: clicking Run
[ 529s]   ext: clicked Run
[ 529s]   ext: waiting for execution_success / execution_error
[ 588s]   ext: WS events=28 elapsed=59s
[ 588s]     ws: {'type': 'progress_state', 'ts': 1778451711701}
[ 588s]     ws: {'type': 'progress_state', 'ts': 1778451711738}
[ 588s]     ws: {'type': 'executing', 'ts': 1778451711738}
[ 588s]     ws: {'type': 'progress_state', 'ts': 1778451763356}
[ 588s]     ws: {'type': 'progress_state', 'ts': 1778451763545}
[ 588s]     ws: {'type': 'executing', 'ts': 1778451763546}
[ 588s]     ws: {'type': 'executed', 'ts': 1778451763633}
[ 588s]     ws: {'type': 'progress_state', 'ts': 1778451763642}
[ 588s]     ws: {'type': 'progress_state', 'ts': 1778451763654}
[ 588s]     ws: {'type': 'executing', 'ts': 1778451763654}
[ 588s]     ws: {'type': 'executed', 'ts': 1778451763746}
[ 588s]     ws: {'type': 'progress_state', 'ts': 1778451763786}
[ 588s]     ws: {'type': 'execution_success', 'ts': 1778451763855}
[ 588s]     ws: {'type': 'status', 'ts': 1778451764397}
[ 588s]     ws: {'type': 'executing', 'ts': 1778451764399}
[ 588s]   ext: execution_success after 59s
[ 594s]   loop: full restart for workflow 3/4 (image_seg_text)
[ 594s]   loop: closing current browser
[ 594s]   loop: killing ComfyUI process
[ 599s]   loop: launching ComfyUI with --remote-debugging-port=0
[ 599s]   loop: waiting for DevToolsActivePort at /Users/runner/Library/Application Support/ComfyUI/DevToolsActivePort
[ 601s]   loop: DevToolsActivePort -> 50134 after 3s
[ 601s]   loop: reconnecting Playwright on port 50134
[ 602s]   loop: attached to file:///Users/runner/.comfy-test-cache/desktop/ComfyUI.app/Contents/Resources/desktop-ui/index.html#/desktop-start
[ 618s]   loop: server ready after 14s
[ 620s]   loop: canvas ready after 2s
[ 620s]   loop: forcing renderer reload
[ 622s]   loop: canvas ready after 2s
[ 625s]   ext: closing Nodes Manager dialog
[ 625s]   ext: dismissing What's New popup
[ 625s]   ext: What's New popup not present
[ 625s]   ext: dismissing Node Pack Issues modal (if present)
[ 625s]   ext: Node Pack Issues modal not present
[ 625s]   ext: opening Templates sidebar
[ 626s]   ext: clicked Templates
[ 630s]   ext: locating "comfyui-sam3" section in Templates panel
[ 632s]   ext: clicked comfyui-sam3 section
[ 634s]   ext: clicking template image_seg_text
[ 636s]   ext: clicked template image_seg_text
[ 642s]   ext: installing WS execution listener
[ 642s]   ext: clicking Run
[ 643s]   ext: clicked Run
[ 643s]   ext: waiting for execution_success / execution_error
[ 726s]   ext: WS events=24 elapsed=83s
[ 726s]     ws: {'type': 'progress_state', 'ts': 1778451824171}
[ 726s]     ws: {'type': 'progress_state', 'ts': 1778451824173}
[ 726s]     ws: {'type': 'executing', 'ts': 1778451824174}
[ 726s]     ws: {'type': 'progress_state', 'ts': 1778451902343}
[ 726s]     ws: {'type': 'progress_state', 'ts': 1778451902449}
[ 726s]     ws: {'type': 'executing', 'ts': 1778451902450}
[ 726s]     ws: {'type': 'executed', 'ts': 1778451902612}
[ 726s]     ws: {'type': 'progress_state', 'ts': 1778451902637}
[ 726s]     ws: {'type': 'progress_state', 'ts': 1778451902640}
[ 726s]     ws: {'type': 'executing', 'ts': 1778451902641}
[ 726s]     ws: {'type': 'executed', 'ts': 1778451902844}
[ 726s]     ws: {'type': 'progress_state', 'ts': 1778451902845}
[ 726s]     ws: {'type': 'execution_success', 'ts': 1778451902854}
[ 726s]     ws: {'type': 'status', 'ts': 1778451902873}
[ 726s]     ws: {'type': 'executing', 'ts': 1778451902887}
[ 726s]   ext: execution_success after 83s
[ 731s]   loop: full restart for workflow 4/4 (scene_seg)
[ 731s]   loop: closing current browser
[ 732s]   loop: killing ComfyUI process
[ 737s]   loop: launching ComfyUI with --remote-debugging-port=0
[ 737s]   loop: waiting for DevToolsActivePort at /Users/runner/Library/Application Support/ComfyUI/DevToolsActivePort
[ 739s]   loop: DevToolsActivePort -> 50335 after 3s
[ 739s]   loop: reconnecting Playwright on port 50335
[ 740s]   loop: attached to file:///Users/runner/.comfy-test-cache/desktop/ComfyUI.app/Contents/Resources/desktop-ui/index.html#/server-start
[ 752s]   loop: server ready after 10s
[ 754s]   loop: canvas ready after 2s
[ 754s]   loop: forcing renderer reload
[ 756s]   loop: canvas ready after 2s
[ 759s]   ext: closing Nodes Manager dialog
[ 759s]   ext: dismissing What's New popup
[ 759s]   ext: What's New popup not present
[ 759s]   ext: dismissing Node Pack Issues modal (if present)
[ 759s]   ext: Node Pack Issues modal not present
[ 759s]   ext: opening Templates sidebar
[ 760s]   ext: clicked Templates
[ 764s]   ext: locating "comfyui-sam3" section in Templates panel
[ 766s]   ext: clicked comfyui-sam3 section
[ 768s]   ext: clicking template scene_seg
[ 770s]   ext: clicked template scene_seg
[ 776s]   ext: installing WS execution listener
[ 776s]   ext: clicking Run
[ 776s]   ext: clicked Run
[ 776s]   ext: waiting for execution_success / execution_error
[ 876s]   ext: WS events=53 elapsed=99s
[ 876s]     ws: {'type': 'progress_state', 'ts': 1778452049598}
[ 876s]     ws: {'type': 'progress_state', 'ts': 1778452049601}
[ 876s]     ws: {'type': 'executing', 'ts': 1778452049601}
[ 876s]     ws: {'type': 'progress_state', 'ts': 1778452051891}
[ 876s]     ws: {'type': 'progress_state', 'ts': 1778452051894}
[ 876s]     ws: {'type': 'executing', 'ts': 1778452051901}
[ 876s]     ws: {'type': 'progress_state', 'ts': 1778452051933}
[ 876s]     ws: {'type': 'progress_state', 'ts': 1778452051937}
[ 876s]     ws: {'type': 'executing', 'ts': 1778452051943}
[ 876s]     ws: {'type': 'executed', 'ts': 1778452052152}
[ 876s]     ws: {'type': 'progress_state', 'ts': 1778452052154}
[ 876s]     ws: {'type': 'progress_state', 'ts': 1778452052157}
[ 876s]     ws: {'type': 'executing', 'ts': 1778452052158}
[ 876s]     ws: {'type': 'progress_state', 'ts': 1778452052565}
[ 876s]     ws: {'type': 'execution_success', 'ts': 1778452052569}
[ 876s]   ext: execution_success after 99s
[ 881s] Captured 846 frames
[ 881s] Wrote /Users/runner/work/comfy-gpu-ci/comfy-gpu-ci/comfy-test-logs/SAM3-2212/dev/macos-desktop/results.json (4 workflow(s), sha=6ce3d8065ccc)
ffmpeg version 7.1 Copyright (c) 2000-2024 the FFmpeg developers
  built with Apple clang version 13.1.6 (clang-1316.0.21.2.5)
  configuration: --prefix=/Volumes/tempdisk/sw --extra-cflags=-fno-stack-check --arch=arm64 --cc=/usr/bin/clang --enable-gpl --enable-libvmaf --enable-libopenjpeg --enable-libopus --enable-libmp3lame --enable-libx264 --enable-libx265 --enable-libvpx --enable-libwebp --enable-libass --enable-libfreetype --enable-fontconfig --enable-libtheora --enable-libvorbis --enable-libsnappy --enable-libaom --enable-libvidstab --enable-libzimg --enable-libsvtav1 --enable-libharfbuzz --enable-libkvazaar --pkg-config-flags=--static --enable-ffplay --enable-postproc --enable-neon --enable-runtime-cpudetect --disable-indev=qtkit --disable-indev=x11grab_xcb
  libavutil      59. 39.100 / 59. 39.100
  libavcodec     61. 19.100 / 61. 19.100
  libavformat    61.  7.100 / 61.  7.100
  libavdevice    61.  3.100 / 61.  3.100
  libavfilter    10.  4.100 / 10.  4.100
  libswscale      8.  3.100 /  8.  3.100
  libswresample   5.  3.100 /  5.  3.100
  libpostproc    58.  3.100 / 58.  3.100
Input #0, image2, from '/Users/runner/work/comfy-gpu-ci/comfy-gpu-ci/comfy-test-logs/SAM3-2212/dev/macos-desktop/debug/electron_inspect/frames/frame_%06d.png':
  Duration: 00:02:49.20, start: 0.000000, bitrate: N/A
  Stream #0:0: Video: png, rgb24(pc, gbr/bt709/iec61966-2-1), 1024x653, 5 fps, 5 tbr, 5 tbn
Stream mapping:
  Stream #0:0 -> #0:0 (png (native) -> h264 (libx264))
Press [q] to stop, [?] for help
[libx264 @ 0x153e07c40] using cpu capabilities: ARMv8 NEON
[libx264 @ 0x153e07c40] profile High, level 3.1, 4:2:0, 8-bit
[libx264 @ 0x153e07c40] 264 - core 164 r3190 7ed753b - H.264/MPEG-4 AVC codec - Copyleft 2003-2024 - http://www.videolan.org/x264.html - options: cabac=1 ref=3 deblock=1:0:0 analyse=0x3:0x113 me=hex subme=7 psy=1 psy_rd=1.00:0.00 mixed_ref=1 me_range=16 chroma_me=1 trellis=1 8x8dct=1 cqm=0 deadzone=21,11 fast_pskip=1 chroma_qp_offset=-2 threads=4 lookahead_threads=1 sliced_threads=0 nr=0 decimate=1 interlaced=0 bluray_compat=0 constrained_intra=0 bframes=3 b_pyramid=2 b_adapt=1 b_bias=0 direct=1 weightb=1 open_gop=0 weightp=2 keyint=250 keyint_min=5 scenecut=40 intra_refresh=0 rc_lookahead=40 rc=crf mbtree=1 crf=23.0 qcomp=0.60 qpmin=0 qpmax=69 qpstep=4 ip_ratio=1.40 aq=1:1.00
Output #0, mp4, to '/Users/runner/work/comfy-gpu-ci/comfy-gpu-ci/comfy-test-logs/SAM3-2212/dev/macos-desktop/debug/electron_inspect/driver.mp4':
  Metadata:
    encoder         : Lavf61.7.100
  Stream #0:0: Video: h264 (avc1 / 0x31637661), yuv420p(tv, unknown/bt709/iec61966-2-1, progressive), 1024x654, q=2-31, 5 fps, 10240 tbn
      Metadata:
        encoder         : Lavc61.19.100 libx264
      Side data:
        cpb: bitrate max/min/avg: 0/0/0 buffer size: 0 vbv_delay: N/A
frame=   56 fps=0.0 q=23.0 size=       0KiB time=00:00:10.80 bitrate=   0.0kbits/s speed=18.1x    
frame=  169 fps=137 q=23.0 size=     512KiB time=00:00:33.40 bitrate= 125.6kbits/s speed=27.2x    
frame=  277 fps=148 q=23.0 size=     768KiB time=00:00:55.00 bitrate= 114.4kbits/s speed=29.3x    
frame=  371 fps=154 q=23.0 size=    1024KiB time=00:01:13.80 bitrate= 113.7kbits/s speed=30.7x    
frame=  489 fps=162 q=23.0 size=    1280KiB time=00:01:37.40 bitrate= 107.7kbits/s speed=32.2x    
[vf#0:0 @ 0x60000206c000] Reconfiguring filter graph because video parameters changed to rgb24(pc, gbr), 1024x656
frame=  602 fps=170 q=23.0 size=    1536KiB time=00:02:00.00 bitrate= 104.9kbits/s speed=33.9x    
[vf#0:0 @ 0x60000206c000] Reconfiguring filter graph because video parameters changed to rgb24(pc, gbr), 1024x653
frame=  695 fps=171 q=23.0 size=    2048KiB time=00:02:18.60 bitrate= 121.1kbits/s speed=34.2x    
[out#0/mp4 @ 0x600002468300] video:2730KiB audio:0KiB subtitle:0KiB other streams:0KiB global headers:0KiB muxing overhead: 0.388125%
frame=  846 fps=182 q=-1.0 Lsize=    2741KiB time=00:02:48.80 bitrate= 133.0kbits/s speed=36.3x    
[libx264 @ 0x153e07c40] frame I:24    Avg QP: 8.07  size: 40295
[libx264 @ 0x153e07c40] frame P:248   Avg QP:16.36  size:  5077
[libx264 @ 0x153e07c40] frame B:574   Avg QP:22.52  size:   991
[libx264 @ 0x153e07c40] consecutive B-frames:  6.7%  6.6%  5.3% 81.3%
[libx264 @ 0x153e07c40] mb I  I16..4: 58.3% 16.1% 25.6%
[libx264 @ 0x153e07c40] mb P  I16..4:  2.6%  3.0%  3.3%  P16..4:  2.5%  1.0%  0.7%  0.0%  0.0%    skip:87.0%
[libx264 @ 0x153e07c40] mb B  I16..4:  0.2%  0.3%  0.2%  B16..8:  2.9%  0.7%  0.2%  direct: 0.2%  skip:95.2%  L0:51.9% L1:42.5% BI: 5.7%
[libx264 @ 0x153e07c40] 8x8 transform intra:26.0% inter:50.0%
[libx264 @ 0x153e07c40] coded y,uvDC,uvAC intra: 37.6% 19.2% 15.6% inter: 1.3% 0.9% 0.2%
[libx264 @ 0x153e07c40] i16 v,h,dc,p: 67% 30%  1%  2%
[libx264 @ 0x153e07c40] i8 v,h,dc,ddl,ddr,vr,hd,vl,hu: 33% 21% 30%  2%  3%  2%  3%  3%  4%
[libx264 @ 0x153e07c40] i4 v,h,dc,ddl,ddr,vr,hd,vl,hu: 33% 30% 17%  2%  3%  3%  4%  3%  4%
[libx264 @ 0x153e07c40] i8c dc,h,v,p: 79% 12%  6%  3%
[libx264 @ 0x153e07c40] Weighted P-Frames: Y:1.6% UV:1.2%
[libx264 @ 0x153e07c40] ref P L0: 59.4%  3.2% 19.1% 18.3%  0.0%
[libx264 @ 0x153e07c40] ref B L0: 77.9% 18.2%  3.9%
[libx264 @ 0x153e07c40] ref B L1: 94.3%  5.7%
[libx264 @ 0x153e07c40] kb/s:132.15
[ 886s] Wrote /Users/runner/work/comfy-gpu-ci/comfy-gpu-ci/comfy-test-logs/SAM3-2212/dev/macos-desktop/debug/electron_inspect/driver.mp4
ffmpeg version 7.1 Copyright (c) 2000-2024 the FFmpeg developers
  built with Apple clang version 13.1.6 (clang-1316.0.21.2.5)
  configuration: --prefix=/Volumes/tempdisk/sw --extra-cflags=-fno-stack-check --arch=arm64 --cc=/usr/bin/clang --enable-gpl --enable-libvmaf --enable-libopenjpeg --enable-libopus --enable-libmp3lame --enable-libx264 --enable-libx265 --enable-libvpx --enable-libwebp --enable-libass --enable-libfreetype --enable-fontconfig --enable-libtheora --enable-libvorbis --enable-libsnappy --enable-libaom --enable-libvidstab --enable-libzimg --enable-libsvtav1 --enable-libharfbuzz --enable-libkvazaar --pkg-config-flags=--static --enable-ffplay --enable-postproc --enable-neon --enable-runtime-cpudetect --disable-indev=qtkit --disable-indev=x11grab_xcb
  libavutil      59. 39.100 / 59. 39.100
  libavcodec     61. 19.100 / 61. 19.100
  libavformat    61.  7.100 / 61.  7.100
  libavdevice    61.  3.100 / 61.  3.100
  libavfilter    10.  4.100 / 10.  4.100
  libswscale      8.  3.100 /  8.  3.100
  libswresample   5.  3.100 /  5.  3.100
  libpostproc    58.  3.100 / 58.  3.100
Input #0, image2, from '/Users/runner/work/comfy-gpu-ci/comfy-gpu-ci/comfy-test-logs/SAM3-2212/dev/macos-desktop/debug/electron_inspect/frames/frame_%06d.png':
  Duration: 00:01:49.20, start: 0.000000, bitrate: N/A
  Stream #0:0: Video: png, rgb24(pc, gbr/bt709/iec61966-2-1), 1024x653, 5 fps, 5 tbr, 5 tbn
Stream mapping:
  Stream #0:0 -> #0:0 (png (native) -> h264 (libx264))
Press [q] to stop, [?] for help
[libx264 @ 0x136e08470] using cpu capabilities: ARMv8 NEON
[libx264 @ 0x136e08470] profile High, level 3.1, 4:2:0, 8-bit
[libx264 @ 0x136e08470] 264 - core 164 r3190 7ed753b - H.264/MPEG-4 AVC codec - Copyleft 2003-2024 - http://www.videolan.org/x264.html - options: cabac=1 ref=3 deblock=1:0:0 analyse=0x3:0x113 me=hex subme=7 psy=1 psy_rd=1.00:0.00 mixed_ref=1 me_range=16 chroma_me=1 trellis=1 8x8dct=1 cqm=0 deadzone=21,11 fast_pskip=1 chroma_qp_offset=-2 threads=4 lookahead_threads=1 sliced_threads=0 nr=0 decimate=1 interlaced=0 bluray_compat=0 constrained_intra=0 bframes=3 b_pyramid=2 b_adapt=1 b_bias=0 direct=1 weightb=1 open_gop=0 weightp=2 keyint=250 keyint_min=5 scenecut=40 intra_refresh=0 rc_lookahead=40 rc=crf mbtree=1 crf=23.0 qcomp=0.60 qpmin=0 qpmax=69 qpstep=4 ip_ratio=1.40 aq=1:1.00
Output #0, mp4, to '/Users/runner/work/comfy-gpu-ci/comfy-gpu-ci/comfy-test-logs/SAM3-2212/dev/macos-desktop/videos/scene_seg_interactive/driver.mp4':
  Metadata:
    encoder         : Lavf61.7.100
  Stream #0:0: Video: h264 (avc1 / 0x31637661), yuv420p(tv, unknown/bt709/iec61966-2-1, progressive), 1024x654, q=2-31, 5 fps, 10240 tbn
      Metadata:
        encoder         : Lavc61.19.100 libx264
      Side data:
        cpb: bitrate max/min/avg: 0/0/0 buffer size: 0 vbv_delay: N/A
frame=  122 fps=0.0 q=23.0 size=       0KiB time=N/A bitrate=N/A speed=N/A    
[out#0/mp4 @ 0x60000230c300] video:124KiB audio:0KiB subtitle:0KiB other streams:0KiB global headers:0KiB muxing overhead: 2.312497%
frame=  175 fps=0.0 q=-1.0 Lsize=     127KiB time=00:00:34.60 bitrate=  30.1kbits/s speed=45.5x    
[libx264 @ 0x136e08470] frame I:1     Avg QP:10.33  size: 53969
[libx264 @ 0x136e08470] frame P:45    Avg QP:14.94  size:  1067
[libx264 @ 0x136e08470] frame B:129   Avg QP:23.58  size:   192
[libx264 @ 0x136e08470] consecutive B-frames:  0.6%  2.3%  3.4% 93.7%
[libx264 @ 0x136e08470] mb I  I16..4: 45.8% 20.5% 33.7%
[libx264 @ 0x136e08470] mb P  I16..4:  0.4%  0.1%  0.3%  P16..4:  1.0%  0.2%  0.1%  0.0%  0.0%    skip:97.8%
[libx264 @ 0x136e08470] mb B  I16..4:  0.0%  0.1%  0.0%  B16..8:  1.5%  0.1%  0.0%  direct: 0.0%  skip:98.3%  L0:50.9% L1:47.4% BI: 1.7%
[libx264 @ 0x136e08470] 8x8 transform intra:22.1% inter:27.4%
[libx264 @ 0x136e08470] coded y,uvDC,uvAC intra: 44.2% 17.2% 13.8% inter: 0.2% 0.1% 0.0%
[libx264 @ 0x136e08470] i16 v,h,dc,p: 46% 54%  0%  0%
[libx264 @ 0x136e08470] i8 v,h,dc,ddl,ddr,vr,hd,vl,hu: 36% 23% 39%  0%  0%  0%  0%  1%  0%
[libx264 @ 0x136e08470] i4 v,h,dc,ddl,ddr,vr,hd,vl,hu: 40% 32% 12%  2%  2%  2%  3%  2%  3%
[libx264 @ 0x136e08470] i8c dc,h,v,p: 64% 25% 10%  1%
[libx264 @ 0x136e08470] Weighted P-Frames: Y:0.0% UV:0.0%
[libx264 @ 0x136e08470] ref P L0: 76.7%  1.8% 13.8%  7.7%
[libx264 @ 0x136e08470] ref B L0: 66.2% 30.9%  3.0%
[libx264 @ 0x136e08470] ref B L1: 90.7%  9.3%
[libx264 @ 0x136e08470] kb/s:28.97
[ 887s]   videos/scene_seg_interactive/driver.mp4 placed (frames 301..475)
[ 887s]   screenshots/scene_seg_interactive_executed.png placed
ffmpeg version 7.1 Copyright (c) 2000-2024 the FFmpeg developers
  built with Apple clang version 13.1.6 (clang-1316.0.21.2.5)
  configuration: --prefix=/Volumes/tempdisk/sw --extra-cflags=-fno-stack-check --arch=arm64 --cc=/usr/bin/clang --enable-gpl --enable-libvmaf --enable-libopenjpeg --enable-libopus --enable-libmp3lame --enable-libx264 --enable-libx265 --enable-libvpx --enable-libwebp --enable-libass --enable-libfreetype --enable-fontconfig --enable-libtheora --enable-libvorbis --enable-libsnappy --enable-libaom --enable-libvidstab --enable-libzimg --enable-libsvtav1 --enable-libharfbuzz --enable-libkvazaar --pkg-config-flags=--static --enable-ffplay --enable-postproc --enable-neon --enable-runtime-cpudetect --disable-indev=qtkit --disable-indev=x11grab_xcb
  libavutil      59. 39.100 / 59. 39.100
  libavcodec     61. 19.100 / 61. 19.100
  libavformat    61.  7.100 / 61.  7.100
  libavdevice    61.  3.100 / 61.  3.100
  libavfilter    10.  4.100 / 10.  4.100
  libswscale      8.  3.100 /  8.  3.100
  libswresample   5.  3.100 /  5.  3.100
  libpostproc    58.  3.100 / 58.  3.100
Input #0, image2, from '/Users/runner/work/comfy-gpu-ci/comfy-gpu-ci/comfy-test-logs/SAM3-2212/dev/macos-desktop/debug/electron_inspect/frames/frame_%06d.png':
  Duration: 00:01:05.80, start: 0.000000, bitrate: N/A
  Stream #0:0: Video: png, rgb24(pc, gbr/bt709/iec61966-2-1), 1024x653, 5 fps, 5 tbr, 5 tbn
Stream mapping:
  Stream #0:0 -> #0:0 (png (native) -> h264 (libx264))
Press [q] to stop, [?] for help
[libx264 @ 0x12f705f70] using cpu capabilities: ARMv8 NEON
[libx264 @ 0x12f705f70] profile High, level 3.1, 4:2:0, 8-bit
[libx264 @ 0x12f705f70] 264 - core 164 r3190 7ed753b - H.264/MPEG-4 AVC codec - Copyleft 2003-2024 - http://www.videolan.org/x264.html - options: cabac=1 ref=3 deblock=1:0:0 analyse=0x3:0x113 me=hex subme=7 psy=1 psy_rd=1.00:0.00 mixed_ref=1 me_range=16 chroma_me=1 trellis=1 8x8dct=1 cqm=0 deadzone=21,11 fast_pskip=1 chroma_qp_offset=-2 threads=4 lookahead_threads=1 sliced_threads=0 nr=0 decimate=1 interlaced=0 bluray_compat=0 constrained_intra=0 bframes=3 b_pyramid=2 b_adapt=1 b_bias=0 direct=1 weightb=1 open_gop=0 weightp=2 keyint=250 keyint_min=5 scenecut=40 intra_refresh=0 rc_lookahead=40 rc=crf mbtree=1 crf=23.0 qcomp=0.60 qpmin=0 qpmax=69 qpstep=4 ip_ratio=1.40 aq=1:1.00
Output #0, mp4, to '/Users/runner/work/comfy-gpu-ci/comfy-gpu-ci/comfy-test-logs/SAM3-2212/dev/macos-desktop/videos/image_seg_point/driver.mp4':
  Metadata:
    encoder         : Lavf61.7.100
  Stream #0:0: Video: h264 (avc1 / 0x31637661), yuv420p(tv, unknown/bt709/iec61966-2-1, progressive), 1024x654, q=2-31, 5 fps, 10240 tbn
      Metadata:
        encoder         : Lavc61.19.100 libx264
      Side data:
        cpb: bitrate max/min/avg: 0/0/0 buffer size: 0 vbv_delay: N/A
[out#0/mp4 @ 0x600001d6c000] video:106KiB audio:0KiB subtitle:0KiB other streams:0KiB global headers:0KiB muxing overhead: 1.786993%
frame=   91 fps=0.0 q=-1.0 Lsize=     108KiB time=00:00:17.80 bitrate=  49.8kbits/s speed=50.4x    
[libx264 @ 0x12f705f70] frame I:2     Avg QP:12.35  size: 34352
[libx264 @ 0x12f705f70] frame P:23    Avg QP:16.78  size:  1485
[libx264 @ 0x12f705f70] frame B:66    Avg QP:23.14  size:    82
[libx264 @ 0x12f705f70] consecutive B-frames:  2.2%  2.2%  3.3% 92.3%
[libx264 @ 0x12f705f70] mb I  I16..4: 47.2% 27.8% 24.9%
[libx264 @ 0x12f705f70] mb P  I16..4:  0.5%  0.3%  0.5%  P16..4:  0.8%  0.2%  0.1%  0.0%  0.0%    skip:97.6%
[libx264 @ 0x12f705f70] mb B  I16..4:  0.1%  0.1%  0.0%  B16..8:  1.1%  0.0%  0.0%  direct: 0.0%  skip:98.7%  L0:47.2% L1:52.5% BI: 0.3%
[libx264 @ 0x12f705f70] 8x8 transform intra:27.5% inter:56.5%
[libx264 @ 0x12f705f70] coded y,uvDC,uvAC intra: 18.0% 18.2% 14.7% inter: 0.1% 0.2% 0.1%
[libx264 @ 0x12f705f70] i16 v,h,dc,p: 55% 40%  0%  5%
[libx264 @ 0x12f705f70] i8 v,h,dc,ddl,ddr,vr,hd,vl,hu: 57% 18% 22%  0%  1%  1%  1%  0%  0%
[libx264 @ 0x12f705f70] i4 v,h,dc,ddl,ddr,vr,hd,vl,hu: 34% 32% 17%  2%  3%  3%  4%  2%  3%
[libx264 @ 0x12f705f70] i8c dc,h,v,p: 71% 17%  7%  4%
[libx264 @ 0x12f705f70] Weighted P-Frames: Y:0.0% UV:0.0%
[libx264 @ 0x12f705f70] ref P L0: 79.6%  3.1% 14.6%  2.7%
[libx264 @ 0x12f705f70] ref B L0: 62.0% 36.3%  1.7%
[libx264 @ 0x12f705f70] ref B L1: 95.7%  4.3%
[libx264 @ 0x12f705f70] kb/s:47.59
[ 887s]   videos/image_seg_point/driver.mp4 placed (frames 518..608)
[ 887s]   screenshots/image_seg_point_executed.png placed
ffmpeg version 7.1 Copyright (c) 2000-2024 the FFmpeg developers
  built with Apple clang version 13.1.6 (clang-1316.0.21.2.5)
  configuration: --prefix=/Volumes/tempdisk/sw --extra-cflags=-fno-stack-check --arch=arm64 --cc=/usr/bin/clang --enable-gpl --enable-libvmaf --enable-libopenjpeg --enable-libopus --enable-libmp3lame --enable-libx264 --enable-libx265 --enable-libvpx --enable-libwebp --enable-libass --enable-libfreetype --enable-fontconfig --enable-libtheora --enable-libvorbis --enable-libsnappy --enable-libaom --enable-libvidstab --enable-libzimg --enable-libsvtav1 --enable-libharfbuzz --enable-libkvazaar --pkg-config-flags=--static --enable-ffplay --enable-postproc --enable-neon --enable-runtime-cpudetect --disable-indev=qtkit --disable-indev=x11grab_xcb
  libavutil      59. 39.100 / 59. 39.100
  libavcodec     61. 19.100 / 61. 19.100
  libavformat    61.  7.100 / 61.  7.100
  libavdevice    61.  3.100 / 61.  3.100
  libavfilter    10.  4.100 / 10.  4.100
  libswscale      8.  3.100 /  8.  3.100
  libswresample   5.  3.100 /  5.  3.100
  libpostproc    58.  3.100 / 58.  3.100
Input #0, image2, from '/Users/runner/work/comfy-gpu-ci/comfy-gpu-ci/comfy-test-logs/SAM3-2212/dev/macos-desktop/debug/electron_inspect/frames/frame_%06d.png':
  Duration: 00:00:39.60, start: 0.000000, bitrate: N/A
  Stream #0:0: Video: png, rgb24(pc, gbr/bt709/iec61966-2-1), 1024x656, 5 fps, 5 tbr, 5 tbn
Stream mapping:
  Stream #0:0 -> #0:0 (png (native) -> h264 (libx264))
Press [q] to stop, [?] for help
[libx264 @ 0x140608220] using cpu capabilities: ARMv8 NEON
[libx264 @ 0x140608220] profile High, level 3.1, 4:2:0, 8-bit
[libx264 @ 0x140608220] 264 - core 164 r3190 7ed753b - H.264/MPEG-4 AVC codec - Copyleft 2003-2024 - http://www.videolan.org/x264.html - options: cabac=1 ref=3 deblock=1:0:0 analyse=0x3:0x113 me=hex subme=7 psy=1 psy_rd=1.00:0.00 mixed_ref=1 me_range=16 chroma_me=1 trellis=1 8x8dct=1 cqm=0 deadzone=21,11 fast_pskip=1 chroma_qp_offset=-2 threads=4 lookahead_threads=1 sliced_threads=0 nr=0 decimate=1 interlaced=0 bluray_compat=0 constrained_intra=0 bframes=3 b_pyramid=2 b_adapt=1 b_bias=0 direct=1 weightb=1 open_gop=0 weightp=2 keyint=250 keyint_min=5 scenecut=40 intra_refresh=0 rc_lookahead=40 rc=crf mbtree=1 crf=23.0 qcomp=0.60 qpmin=0 qpmax=69 qpstep=4 ip_ratio=1.40 aq=1:1.00
Output #0, mp4, to '/Users/runner/work/comfy-gpu-ci/comfy-gpu-ci/comfy-test-logs/SAM3-2212/dev/macos-desktop/videos/image_seg_text/driver.mp4':
  Metadata:
    encoder         : Lavf61.7.100
  Stream #0:0: Video: h264 (avc1 / 0x31637661), yuv420p(tv, unknown/bt709/iec61966-2-1, progressive), 1024x656, q=2-31, 5 fps, 10240 tbn
      Metadata:
        encoder         : Lavc61.19.100 libx264
      Side data:
        cpb: bitrate max/min/avg: 0/0/0 buffer size: 0 vbv_delay: N/A
[out#0/mp4 @ 0x6000039c8300] video:119KiB audio:0KiB subtitle:0KiB other streams:0KiB global headers:0KiB muxing overhead: 1.533463%
frame=   84 fps=0.0 q=-1.0 Lsize=     121KiB time=00:00:16.40 bitrate=  60.4kbits/s speed=43.5x    
[libx264 @ 0x140608220] frame I:2     Avg QP:12.71  size: 43275
[libx264 @ 0x140608220] frame P:21    Avg QP:15.55  size:  1388
[libx264 @ 0x140608220] frame B:61    Avg QP:23.68  size:    90
[libx264 @ 0x140608220] consecutive B-frames:  2.4%  2.4%  0.0% 95.2%
[libx264 @ 0x140608220] mb I  I16..4: 42.3% 25.9% 31.8%
[libx264 @ 0x140608220] mb P  I16..4:  0.5%  0.1%  0.6%  P16..4:  1.0%  0.2%  0.1%  0.0%  0.0%    skip:97.4%
[libx264 @ 0x140608220] mb B  I16..4:  0.1%  0.0%  0.0%  B16..8:  1.1%  0.0%  0.0%  direct: 0.0%  skip:98.7%  L0:57.0% L1:42.8% BI: 0.2%
[libx264 @ 0x140608220] 8x8 transform intra:24.5% inter:58.9%
[libx264 @ 0x140608220] coded y,uvDC,uvAC intra: 38.1% 18.7% 14.7% inter: 0.1% 0.2% 0.1%
[libx264 @ 0x140608220] i16 v,h,dc,p: 50% 45%  0%  5%
[libx264 @ 0x140608220] i8 v,h,dc,ddl,ddr,vr,hd,vl,hu: 60% 16% 19%  0%  2%  1%  1%  0%  1%
[libx264 @ 0x140608220] i4 v,h,dc,ddl,ddr,vr,hd,vl,hu: 41% 33% 12%  2%  2%  2%  3%  2%  3%
[libx264 @ 0x140608220] i8c dc,h,v,p: 73% 14%  8%  5%
[libx264 @ 0x140608220] Weighted P-Frames: Y:0.0% UV:0.0%
[libx264 @ 0x140608220] ref P L0: 83.5%  1.5%  5.5%  9.6%
[libx264 @ 0x140608220] ref B L0: 80.3% 18.6%  1.2%
[libx264 @ 0x140608220] ref B L1: 95.6%  4.4%
[libx264 @ 0x140608220] kb/s:57.71
[ 888s]   videos/image_seg_text/driver.mp4 placed (frames 649..732)
[ 888s]   screenshots/image_seg_text_executed.png placed
ffmpeg version 7.1 Copyright (c) 2000-2024 the FFmpeg developers
  built with Apple clang version 13.1.6 (clang-1316.0.21.2.5)
  configuration: --prefix=/Volumes/tempdisk/sw --extra-cflags=-fno-stack-check --arch=arm64 --cc=/usr/bin/clang --enable-gpl --enable-libvmaf --enable-libopenjpeg --enable-libopus --enable-libmp3lame --enable-libx264 --enable-libx265 --enable-libvpx --enable-libwebp --enable-libass --enable-libfreetype --enable-fontconfig --enable-libtheora --enable-libvorbis --enable-libsnappy --enable-libaom --enable-libvidstab --enable-libzimg --enable-libsvtav1 --enable-libharfbuzz --enable-libkvazaar --pkg-config-flags=--static --enable-ffplay --enable-postproc --enable-neon --enable-runtime-cpudetect --disable-indev=qtkit --disable-indev=x11grab_xcb
  libavutil      59. 39.100 / 59. 39.100
  libavcodec     61. 19.100 / 61. 19.100
  libavformat    61.  7.100 / 61.  7.100
  libavdevice    61.  3.100 / 61.  3.100
  libavfilter    10.  4.100 / 10.  4.100
  libswscale      8.  3.100 /  8.  3.100
  libswresample   5.  3.100 /  5.  3.100
  libpostproc    58.  3.100 / 58.  3.100
Input #0, image2, from '/Users/runner/work/comfy-gpu-ci/comfy-gpu-ci/comfy-test-logs/SAM3-2212/dev/macos-desktop/debug/electron_inspect/frames/frame_%06d.png':
  Duration: 00:00:15.60, start: 0.000000, bitrate: N/A
  Stream #0:0: Video: png, rgb24(pc, gbr/bt709/iec61966-2-1), 1024x653, 5 fps, 5 tbr, 5 tbn
Stream mapping:
  Stream #0:0 -> #0:0 (png (native) -> h264 (libx264))
Press [q] to stop, [?] for help
[libx264 @ 0x134f05f70] using cpu capabilities: ARMv8 NEON
[libx264 @ 0x134f05f70] profile High, level 3.1, 4:2:0, 8-bit
[libx264 @ 0x134f05f70] 264 - core 164 r3190 7ed753b - H.264/MPEG-4 AVC codec - Copyleft 2003-2024 - http://www.videolan.org/x264.html - options: cabac=1 ref=3 deblock=1:0:0 analyse=0x3:0x113 me=hex subme=7 psy=1 psy_rd=1.00:0.00 mixed_ref=1 me_range=16 chroma_me=1 trellis=1 8x8dct=1 cqm=0 deadzone=21,11 fast_pskip=1 chroma_qp_offset=-2 threads=4 lookahead_threads=1 sliced_threads=0 nr=0 decimate=1 interlaced=0 bluray_compat=0 constrained_intra=0 bframes=3 b_pyramid=2 b_adapt=1 b_bias=0 direct=1 weightb=1 open_gop=0 weightp=2 keyint=250 keyint_min=5 scenecut=40 intra_refresh=0 rc_lookahead=40 rc=crf mbtree=1 crf=23.0 qcomp=0.60 qpmin=0 qpmax=69 qpstep=4 ip_ratio=1.40 aq=1:1.00
Output #0, mp4, to '/Users/runner/work/comfy-gpu-ci/comfy-gpu-ci/comfy-test-logs/SAM3-2212/dev/macos-desktop/videos/scene_seg/driver.mp4':
  Metadata:
    encoder         : Lavf61.7.100
  Stream #0:0: Video: h264 (avc1 / 0x31637661), yuv420p(tv, unknown/bt709/iec61966-2-1, progressive), 1024x654, q=2-31, 5 fps, 10240 tbn
      Metadata:
        encoder         : Lavc61.19.100 libx264
      Side data:
        cpb: bitrate max/min/avg: 0/0/0 buffer size: 0 vbv_delay: N/A
[out#0/mp4 @ 0x600002b94000] video:122KiB audio:0KiB subtitle:0KiB other streams:0KiB global headers:0KiB muxing overhead: 1.422270%
frame=   78 fps=0.0 q=-1.0 Lsize=     124KiB time=00:00:15.20 bitrate=  66.9kbits/s speed=47.5x    
[libx264 @ 0x134f05f70] frame I:2     Avg QP:11.98  size: 34918
[libx264 @ 0x134f05f70] frame P:20    Avg QP:17.11  size:  2293
[libx264 @ 0x134f05f70] frame B:56    Avg QP:23.40  size:   160
[libx264 @ 0x134f05f70] consecutive B-frames:  2.6%  2.6%  7.7% 87.2%
[libx264 @ 0x134f05f70] mb I  I16..4: 50.1% 25.2% 24.7%
[libx264 @ 0x134f05f70] mb P  I16..4:  0.8%  0.2%  0.8%  P16..4:  1.2%  0.3%  0.1%  0.0%  0.0%    skip:96.5%
[libx264 @ 0x134f05f70] mb B  I16..4:  0.1%  0.1%  0.0%  B16..8:  1.5%  0.1%  0.0%  direct: 0.0%  skip:98.2%  L0:42.2% L1:57.4% BI: 0.4%
[libx264 @ 0x134f05f70] 8x8 transform intra:23.8% inter:34.2%
[libx264 @ 0x134f05f70] coded y,uvDC,uvAC intra: 19.2% 18.0% 13.8% inter: 0.2% 0.2% 0.1%
[libx264 @ 0x134f05f70] i16 v,h,dc,p: 62% 35%  0%  2%
[libx264 @ 0x134f05f70] i8 v,h,dc,ddl,ddr,vr,hd,vl,hu: 65% 14% 17%  0%  1%  1%  1%  0%  0%
[libx264 @ 0x134f05f70] i4 v,h,dc,ddl,ddr,vr,hd,vl,hu: 32% 34% 17%  2%  3%  2%  4%  2%  4%
[libx264 @ 0x134f05f70] i8c dc,h,v,p: 71% 17%  9%  3%
[libx264 @ 0x134f05f70] Weighted P-Frames: Y:0.0% UV:0.0%
[libx264 @ 0x134f05f70] ref P L0: 74.8%  3.4% 17.5%  4.3%
[libx264 @ 0x134f05f70] ref B L0: 74.7% 23.2%  2.1%
[libx264 @ 0x134f05f70] ref B L1: 96.7%  3.3%
[libx264 @ 0x134f05f70] kb/s:63.94
[ 888s]   videos/scene_seg/driver.mp4 placed (frames 769..846)
[ 888s]   screenshots/scene_seg_executed.png placed
[ 888s]   removed /Users/runner/work/comfy-gpu-ci/comfy-gpu-ci/comfy-test-logs/SAM3-2212/dev/macos-desktop/debug/electron_inspect/frames after successful encode
